# Blender 3.5.0
# www.blender.org
mtllib SakuraHana.mtl
g SakuraHana_Star.002
v 0.561318 0.263579 0.354622
v 0.581256 0.263579 0.310181
v 0.474617 0.263579 0.456956
v 0.512783 0.263579 0.358733
v 0.510722 0.263579 0.424261
v 0.499633 0.263579 0.376832
v 0.569562 0.263579 0.232176
v 0.396816 0.263579 0.469939
v 0.471907 0.250911 0.342861
v 0.203542 0.228002 0.406377
v 0.298388 0.258843 0.454532
v 0.025766 0.258843 0.543112
v 0.126718 0.171885 0.332806
v 0.074193 0.228002 0.448404
v 0.093101 0.171885 0.343728
v 0.396816 0.263579 0.469939
v -0.044807 0.263579 0.613431
v 0.079612 0.106678 0.245019
v -0.163808 0.263579 0.643429
v -0.115381 0.263579 0.648658
v -0.287926 0.263579 0.592595
v -0.182716 0.263579 0.598540
v -0.245674 0.263579 0.616829
v -0.203993 0.263579 0.591627
v -0.044808 0.263579 0.613432
v -0.324316 0.263579 0.522614
v -0.180253 0.250911 0.554760
v -0.323589 0.228001 0.319157
v -0.340078 0.258843 0.424241
v -0.508568 0.258843 0.192336
v -0.277359 0.171885 0.223358
v -0.403531 0.228002 0.209127
v -0.298135 0.171885 0.194762
v -0.324316 0.263579 0.522613
v -0.597254 0.263579 0.146946
v -0.208426 0.106678 0.151430
v -0.662557 0.263579 0.043039
v -0.652565 0.263579 0.090712
v -0.652565 0.263579 -0.090712
v -0.625708 0.263579 0.011186
v -0.662557 0.263579 -0.043040
v -0.625708 0.263579 -0.011186
v -0.597254 0.263579 0.146946
v -0.597254 0.263579 -0.146946
v -0.583310 0.250911 -0.000000
v -0.298135 0.171885 -0.194762
v -0.323589 0.228001 -0.319157
v -0.277359 0.171885 -0.223358
v -0.403531 0.228002 -0.209127
v -0.508568 0.258843 -0.192336
v -0.340078 0.258843 -0.424241
v -0.208426 0.106678 -0.151430
v -0.597254 0.263579 -0.146946
v -0.324316 0.263579 -0.522613
v -0.245674 0.263579 -0.616829
v -0.287926 0.263579 -0.592595
v -0.115381 0.263579 -0.648658
v -0.203993 0.263579 -0.591627
v -0.163808 0.263579 -0.643429
v -0.182716 0.263579 -0.598540
v -0.324316 0.263579 -0.522614
v -0.044808 0.263579 -0.613432
v -0.180253 0.250911 -0.554760
v 0.074193 0.228002 -0.448404
v 0.025766 0.258843 -0.543112
v 0.298388 0.258843 -0.454532
v 0.093101 0.171885 -0.343728
v 0.203542 0.228002 -0.406377
v 0.126718 0.171885 -0.332806
v -0.044807 0.263579 -0.613431
v 0.396816 0.263579 -0.469939
v 0.079612 0.106678 -0.245019
v 0.510722 0.263579 -0.424261
v 0.474617 0.263579 -0.456956
v 0.581256 0.263579 -0.310181
v 0.499634 0.263579 -0.376831
v 0.561318 0.263579 -0.354622
v 0.512783 0.263579 -0.358733
v 0.396816 0.263579 -0.469939
v 0.569562 0.263579 -0.232175
v 0.471907 0.250911 -0.342861
v 0.449385 0.228002 -0.068002
v 0.524492 0.258843 -0.143325
v 0.524492 0.258843 0.143326
v 0.355675 0.171885 -0.017673
v 0.449385 0.228001 0.068003
v 0.355675 0.171885 0.017673
v 0.569562 0.263579 -0.232175
v 0.569561 0.263579 0.232175
v 0.257628 0.106678 0.000000
v 0.000000 -0.000000 0.000000
vn -0.1161 0.9932 -0.0113
vn -0.1132 0.9923 0.0508
vn -0.3015 0.9280 0.2190
vn -0.1030 0.9680 -0.2287
vn -0.0000 -1.0000 -0.0000
vn -0.0159 0.9972 -0.0731
vn -0.0751 0.9908 -0.1126
vn -0.0512 0.9680 -0.2456
vn 0.1151 0.9280 -0.3544
vn 0.1005 0.9932 -0.0591
vn 0.0617 0.9923 -0.1076
vn 0.0780 0.9944 -0.0716
vn 0.2177 0.9680 -0.1245
vn 0.3726 0.9280 -0.0000
vn 0.0873 0.9932 0.0773
vn 0.1214 0.9923 0.0254
vn 0.0851 0.9947 0.0579
vn 0.1857 0.9680 0.1686
vn 0.1152 0.9280 0.3544
vn -0.0512 0.9680 0.2456
vn -0.0617 0.9921 0.1095
vn -0.0251 0.9939 0.1078
vn -0.1030 0.9680 0.2287
vn -0.1238 0.9922 0.0124
vn -0.2494 0.9680 -0.0272
vn -0.3015 0.9280 -0.2190
vn -0.0000 1.0000 -0.0000
vn -0.4306 0.9025 -0.0000
vn -0.5305 0.8476 0.0164
vn -0.4342 0.9000 0.0394
vn -0.2493 0.9680 0.0272
vn -0.1171 0.9793 0.1651
vn -0.1331 0.9025 -0.4096
vn -0.1795 0.8476 -0.4994
vn -0.1717 0.8999 -0.4008
vn -0.0833 0.9923 -0.0919
vn -0.1932 0.9793 -0.0603
vn 0.1208 0.9793 -0.1623
vn 0.0133 0.9923 -0.1233
vn -0.7152 0.6561 -0.2409
vn -0.0967 0.8999 -0.4252
vn -0.1483 0.8476 -0.5095
vn 0.3484 0.9025 -0.2531
vn 0.4195 0.8476 -0.3250
vn 0.3281 0.8999 -0.2871
vn 0.1857 0.9680 -0.1686
vn -0.0023 0.9793 -0.2024
vn 0.1917 0.9793 0.0647
vn 0.1214 0.9923 -0.0254
vn -0.1992 0.9793 -0.0354
vn 0.3744 0.9000 -0.2233
vn 0.4388 0.8476 -0.2985
vn 0.3484 0.9025 0.2531
vn 0.4388 0.8476 0.2985
vn 0.3745 0.8999 0.2233
vn 0.2178 0.9680 0.1245
vn 0.1917 0.9793 -0.0647
vn -0.0023 0.9793 0.2024
vn 0.0617 0.9923 0.1076
vn -0.3045 0.9515 0.0436
vn 0.3281 0.8999 0.2871
vn 0.4195 0.8476 0.3250
vn -0.1331 0.9025 0.4096
vn -0.1483 0.8476 0.5095
vn -0.0967 0.9000 0.4251
vn -0.4475 0.8688 0.2120
vn 0.0133 0.9923 0.1233
vn 0.1208 0.9793 0.1623
vn -0.1932 0.9793 0.0603
vn -0.0833 0.9923 0.0919
vn -0.0000 0.9974 0.0717
vn -0.1717 0.9000 0.4008
vn -0.1795 0.8476 0.4994
vn -0.4842 0.8682 0.1085
vn -0.4342 0.9000 -0.0394
vn -0.5305 0.8476 -0.0164
vn -0.1171 0.9793 -0.1651
vn -0.1132 0.9923 -0.0508
s 1
usemtl SakuraHana
f 88//1 75//2 81//3
f 11//4 16//5 8//6
f 25//7 12//8 27//9
f 34//10 21//11 27//9
f 43//12 30//13 45//14
f 53//15 39//16 45//14
f 61//17 51//18 63//19
f 65//20 62//21 63//19
f 79//22 66//23 81//3
f 7//24 84//25 9//26
f 81//3 91//27 90//28
f 90//28 85//29 81//3
f 85//29 82//30 81//3
f 82//30 83//31 81//3
f 83//31 88//1 81//3
f 88//1 80//27 75//2
f 75//2 77//27 78//32
f 78//32 81//3 75//2
f 9//26 91//27 18//33
f 18//33 13//34 9//26
f 13//34 10//35 9//26
f 3//36 5//27 6//37
f 6//37 9//26 3//36
f 11//4 9//26 10//35
f 9//26 11//4 8//6
f 9//26 8//6 3//36
f 18//33 91//27 27//9
f 27//9 22//38 20//39
f 22//38 19//27 20//39
f 20//39 25//7 27//9
f 25//7 17//40 12//8
f 12//8 14//41 27//9
f 14//41 15//42 27//9
f 15//42 18//33 27//9
f 27//9 91//27 36//43
f 36//43 31//44 27//9
f 31//44 28//45 27//9
f 28//45 29//46 27//9
f 29//46 34//10 27//9
f 34//10 26//27 21//11
f 21//11 23//27 24//47
f 24//47 27//9 21//11
f 36//43 91//27 45//14
f 45//14 40//48 38//49
f 40//48 37//27 38//49
f 38//49 43//12 45//14
f 43//12 35//50 30//13
f 30//13 32//51 45//14
f 32//51 33//52 45//14
f 33//52 36//43 45//14
f 45//14 91//27 52//53
f 52//53 46//54 45//14
f 46//54 49//55 45//14
f 49//55 50//56 45//14
f 50//56 53//15 45//14
f 53//15 44//27 39//16
f 39//16 41//27 42//57
f 42//57 45//14 39//16
f 52//53 91//27 63//19
f 63//19 58//58 56//59
f 58//58 55//27 56//59
f 56//59 61//17 63//19
f 61//17 54//60 51//18
f 51//18 47//61 63//19
f 47//61 48//62 63//19
f 48//62 52//53 63//19
f 63//19 91//27 72//63
f 72//63 67//64 63//19
f 67//64 64//65 63//19
f 64//65 65//20 63//19
f 65//20 70//66 62//21
f 62//21 57//67 63//19
f 57//67 59//27 60//68
f 63//19 57//67 60//68
f 72//63 91//27 81//3
f 81//3 76//69 74//70
f 76//69 73//27 74//70
f 74//70 79//22 81//3
f 79//22 71//71 66//23
f 66//23 68//72 81//3
f 68//72 69//73 81//3
f 69//73 72//63 81//3
f 7//24 89//74 84//25
f 84//25 86//75 9//26
f 86//75 87//76 9//26
f 87//76 90//28 9//26
f 90//28 91//27 9//26
f 9//26 4//77 2//78
f 4//77 1//27 2//78
f 2//78 7//24 9//26
